<?xml version="1.0" encoding="UTF-8" standalone="no"?>
<!DOCTYPE svg PUBLIC "-//W3C//DTD SVG 1.1//EN" "http://www.w3.org/Graphics/SVG/1.1/DTD/svg11.dtd">
<svg width="100%" height="100%" viewBox="0 0 168 100" version="1.1" xmlns="http://www.w3.org/2000/svg" xmlns:xlink="http://www.w3.org/1999/xlink" xml:space="preserve" xmlns:serif="http://www.serif.com/" style="fill-rule:evenodd;clip-rule:evenodd;stroke-miterlimit:10;">
    <path d="M28.01,14.255L28.01,56.695C28.01,64.287 21.847,70.45 14.255,70.45C6.663,70.45 0.5,64.287 0.5,56.695L0.5,14.255C0.5,6.663 6.663,0.5 14.255,0.5C21.847,0.5 28.01,6.663 28.01,14.255Z" style="fill:rgb(108,182,221);stroke:rgb(108,182,221);stroke-width:1px;"/>
    <g transform="matrix(-3.82857e-16,1,-1,-3.82857e-16,143.5,25.53)">
        <path d="M73.05,64.26L73.05,104.77C73.05,112.475 66.795,118.73 59.09,118.73L58.88,118.73C51.175,118.73 44.92,112.475 44.92,104.77L44.92,64.26C44.92,56.555 51.175,50.3 58.88,50.3L59.09,50.3C66.795,50.3 73.05,56.555 73.05,64.26Z" style="fill:rgb(108,182,221);stroke:rgb(108,182,221);stroke-width:1px;"/>
    </g>
    <path d="M53.06,54.91L39.59,54.91C39.61,56.46 39.92,57.83 40.54,59.01C41.15,60.19 41.97,61.08 42.99,61.68C44.01,62.28 45.13,62.58 46.36,62.58C47.18,62.58 47.94,62.48 48.62,62.29C49.3,62.1 49.96,61.8 50.6,61.39C51.24,60.98 51.83,60.55 52.36,60.08C52.9,59.61 53.6,58.98 54.45,58.18C54.8,57.88 55.31,57.73 55.96,57.73C56.67,57.73 57.24,57.92 57.67,58.31C58.11,58.69 58.33,59.23 58.33,59.93C58.33,60.55 58.09,61.27 57.6,62.09C57.11,62.91 56.38,63.71 55.39,64.46C54.41,65.22 53.17,65.85 51.68,66.35C50.19,66.85 48.48,67.1 46.55,67.1C42.13,67.1 38.69,65.85 36.23,63.35C33.77,60.85 32.55,57.46 32.55,53.18C32.55,51.16 32.85,49.29 33.46,47.57C34.07,45.85 34.95,44.37 36.11,43.13C37.27,41.9 38.7,40.95 40.4,40.29C42.1,39.63 43.98,39.3 46.05,39.3C48.74,39.3 51.05,39.86 52.97,40.99C54.9,42.11 56.34,43.57 57.3,45.35C58.26,47.13 58.74,48.95 58.74,50.8C58.74,52.52 58.24,53.63 57.25,54.14C56.26,54.65 54.86,54.9 53.06,54.9L53.06,54.91ZM39.59,51.04L52.07,51.04C51.9,48.71 51.27,46.96 50.17,45.81C49.07,44.65 47.62,44.07 45.82,44.07C44.02,44.07 42.7,44.66 41.6,45.83C40.5,47 39.83,48.74 39.6,51.04L39.59,51.04Z" style="fill-rule:nonzero;stroke:black;stroke-width:1px;stroke-linejoin:round;stroke-miterlimit:2;"/>
    <path d="M90.31,53.24C90.31,55.27 89.99,57.15 89.35,58.86C88.71,60.58 87.79,62.05 86.58,63.28C85.37,64.51 83.92,65.46 82.24,66.12C80.56,66.78 78.67,67.11 76.57,67.11C74.47,67.11 72.61,66.78 70.95,66.11C69.29,65.44 67.84,64.49 66.62,63.25C65.4,62.01 64.48,60.54 63.84,58.85C63.21,57.16 62.89,55.29 62.89,53.24C62.89,51.19 63.21,49.28 63.85,47.57C64.49,45.85 65.41,44.39 66.6,43.17C67.79,41.95 69.24,41.02 70.94,40.36C72.64,39.7 74.51,39.37 76.56,39.37C78.61,39.37 80.54,39.7 82.23,40.37C83.93,41.04 85.38,41.99 86.59,43.22C87.8,44.45 88.72,45.92 89.35,47.62C89.98,49.32 90.3,51.19 90.3,53.24L90.31,53.24ZM83.4,53.24C83.4,50.46 82.78,48.29 81.55,46.74C80.31,45.19 78.65,44.42 76.57,44.42C75.22,44.42 74.04,44.77 73.01,45.46C71.98,46.15 71.19,47.17 70.64,48.52C70.09,49.87 69.81,51.44 69.81,53.24C69.81,55.04 70.08,56.58 70.63,57.91C71.18,59.24 71.96,60.26 72.98,60.97C74,61.68 75.2,62.03 76.57,62.03C78.65,62.03 80.32,61.25 81.55,59.69C82.79,58.13 83.4,55.98 83.4,53.23L83.4,53.24Z" style="fill-rule:nonzero;stroke:black;stroke-width:1px;stroke-linejoin:round;stroke-miterlimit:2;"/>
    <path d="M117.94,87.01L104.6,87.01C104.62,88.56 104.93,89.93 105.54,91.11C106.15,92.29 106.96,93.18 107.96,93.78C108.96,94.38 110.08,94.68 111.3,94.68C112.12,94.68 112.86,94.58 113.54,94.39C114.21,94.2 114.87,93.9 115.5,93.49C116.13,93.08 116.72,92.65 117.25,92.18C117.78,91.71 118.47,91.08 119.32,90.28C119.67,89.98 120.17,89.83 120.82,89.83C121.52,89.83 122.09,90.02 122.52,90.41C122.95,90.79 123.17,91.33 123.17,92.03C123.17,92.65 122.93,93.37 122.45,94.19C121.97,95.01 121.24,95.81 120.26,96.56C119.29,97.32 118.06,97.95 116.59,98.45C115.12,98.95 113.42,99.2 111.51,99.2C107.13,99.2 103.72,97.95 101.29,95.45C98.86,92.95 97.64,89.56 97.64,85.28C97.64,83.26 97.94,81.39 98.54,79.67C99.14,77.95 100.01,76.47 101.16,75.23C102.31,74 103.73,73.05 105.41,72.39C107.09,71.73 108.96,71.4 111.01,71.4C113.68,71.4 115.96,71.96 117.87,73.09C119.78,74.21 121.21,75.67 122.16,77.45C123.11,79.23 123.58,81.05 123.58,82.9C123.58,84.62 123.09,85.73 122.11,86.24C121.13,86.75 119.74,87 117.96,87L117.94,87.01ZM104.59,83.14L116.97,83.14C116.8,80.81 116.17,79.06 115.08,77.91C113.99,76.75 112.55,76.17 110.77,76.17C108.99,76.17 107.68,76.76 106.58,77.93C105.49,79.1 104.83,80.84 104.59,83.14Z" style="fill-rule:nonzero;stroke:black;stroke-width:1px;stroke-linejoin:round;stroke-miterlimit:2;"/>
    <path d="M132.76,68.3C131.81,68.3 131,68.01 130.32,67.43C129.64,66.85 129.31,66.02 129.31,64.96C129.31,63.99 129.65,63.2 130.35,62.57C131.04,61.95 131.85,61.63 132.76,61.63C133.67,61.63 134.43,61.91 135.11,62.48C135.79,63.05 136.13,63.87 136.13,64.95C136.13,66.03 135.8,66.82 135.13,67.41C134.46,68 133.67,68.3 132.76,68.3ZM136.13,75.34L136.13,95.05C136.13,96.42 135.81,97.45 135.16,98.15C134.51,98.85 133.69,99.2 132.69,99.2C131.69,99.2 130.88,98.84 130.25,98.12C129.63,97.4 129.31,96.38 129.31,95.05L129.31,75.54C129.31,74.19 129.62,73.17 130.25,72.49C130.88,71.81 131.69,71.47 132.69,71.47C133.69,71.47 134.51,71.81 135.16,72.49C135.81,73.17 136.13,74.12 136.13,75.34Z" style="fill-rule:nonzero;stroke:black;stroke-width:1px;stroke-linejoin:round;stroke-miterlimit:2;"/>
    <path d="M149.85,65.47L149.85,75.59C150.72,74.59 151.56,73.8 152.39,73.22C153.21,72.64 154.13,72.2 155.13,71.91C156.13,71.62 157.2,71.47 158.35,71.47C160.08,71.47 161.62,71.84 162.96,72.57C164.3,73.3 165.35,74.37 166.12,75.77C166.6,76.59 166.93,77.5 167.09,78.51C167.26,79.52 167.34,80.68 167.34,82L167.34,95.07C167.34,96.44 167.03,97.47 166.4,98.17C165.78,98.87 164.95,99.22 163.91,99.22C161.66,99.22 160.54,97.84 160.54,95.07L160.54,83.55C160.54,81.37 160.22,79.69 159.57,78.51C158.92,77.34 157.69,76.75 155.87,76.75C154.65,76.75 153.56,77.1 152.58,77.79C151.61,78.48 150.88,79.43 150.39,80.63C150.02,81.65 149.84,83.45 149.84,86.05L149.84,95.07C149.84,96.42 149.54,97.45 148.93,98.16C148.32,98.87 147.48,99.22 146.39,99.22C144.14,99.22 143.02,97.84 143.02,95.07L143.02,65.49C143.02,64.11 143.32,63.07 143.91,62.38C144.5,61.69 145.33,61.34 146.4,61.34C147.47,61.34 148.33,61.69 148.94,62.39C149.55,63.09 149.85,64.12 149.85,65.49L149.85,65.47Z" style="fill-rule:nonzero;stroke:black;stroke-width:1px;stroke-linejoin:round;stroke-miterlimit:2;"/>
</svg>
