<?xml version="1.0" encoding="UTF-8"?>
<svg id="Layer_1" data-name="Layer 1" xmlns="http://www.w3.org/2000/svg" viewBox="0 0 167.34 99.21">
  <defs>
    <style>
      .cls-1 {
        fill: #6cb6dd;
        stroke: #6cb6dd;
        stroke-miterlimit: 10;
      }

      .cls-2 {
        fill: #fff;
      }
    </style>
  </defs>
  <rect class="cls-1" x=".5" y=".5" width="27.51" height="69.95" rx="13.76" ry="13.76"/>
  <rect class="cls-1" x="44.92" y="50.3" width="28.13" height="68.43" rx="13.96" ry="13.96" transform="translate(143.5 25.53) rotate(90)"/>
  <path class="cls-2" d="M53.06,54.91h-13.47c.02,1.55.33,2.92.95,4.1.61,1.18,1.43,2.07,2.45,2.67s2.14.9,3.37.9c.82,0,1.58-.1,2.26-.29.68-.19,1.34-.49,1.98-.9.64-.41,1.23-.84,1.76-1.31.54-.47,1.24-1.1,2.09-1.9.35-.3.86-.45,1.51-.45.71,0,1.28.19,1.71.58.44.38.66.92.66,1.62,0,.62-.24,1.34-.73,2.16-.49.82-1.22,1.62-2.21,2.37-.98.76-2.22,1.39-3.71,1.89s-3.2.75-5.13.75c-4.42,0-7.86-1.25-10.32-3.75-2.46-2.5-3.68-5.89-3.68-10.17,0-2.02.3-3.89.91-5.61.61-1.72,1.49-3.2,2.65-4.44,1.16-1.23,2.59-2.18,4.29-2.84,1.7-.66,3.58-.99,5.65-.99,2.69,0,5,.56,6.92,1.69,1.93,1.12,3.37,2.58,4.33,4.36.96,1.78,1.44,3.6,1.44,5.45,0,1.72-.5,2.83-1.49,3.34-.99.51-2.39.76-4.19.76ZM39.59,51.04h12.48c-.17-2.33-.8-4.08-1.9-5.23-1.1-1.16-2.55-1.74-4.35-1.74s-3.12.59-4.22,1.76c-1.1,1.17-1.77,2.91-2,5.21Z"/>
  <path class="cls-2" d="M90.31,53.24c0,2.03-.32,3.91-.96,5.62-.64,1.72-1.56,3.19-2.77,4.42-1.21,1.23-2.66,2.18-4.34,2.84s-3.57.99-5.67.99-3.96-.33-5.62-1-3.11-1.62-4.33-2.86c-1.22-1.24-2.14-2.71-2.78-4.4-.63-1.69-.95-3.56-.95-5.61s.32-3.96.96-5.67c.64-1.72,1.56-3.18,2.75-4.4,1.19-1.22,2.64-2.15,4.34-2.81,1.7-.66,3.57-.99,5.62-.99s3.98.33,5.67,1c1.7.67,3.15,1.62,4.36,2.85s2.13,2.7,2.76,4.4c.63,1.7.95,3.57.95,5.62ZM83.4,53.24c0-2.78-.62-4.95-1.85-6.5-1.24-1.55-2.9-2.32-4.98-2.32-1.35,0-2.53.35-3.56,1.04-1.03.69-1.82,1.71-2.37,3.06s-.83,2.92-.83,4.72.27,3.34.82,4.67c.55,1.33,1.33,2.35,2.35,3.06,1.02.71,2.22,1.06,3.59,1.06,2.08,0,3.75-.78,4.98-2.34,1.24-1.56,1.85-3.71,1.85-6.46Z"/>
  <path class="cls-2" d="M117.94,87.01h-13.34c.02,1.55.33,2.92.94,4.1.61,1.18,1.42,2.07,2.42,2.67s2.12.9,3.34.9c.82,0,1.56-.1,2.24-.29.67-.19,1.33-.49,1.96-.9.63-.41,1.22-.84,1.75-1.31.53-.47,1.22-1.1,2.07-1.9.35-.3.85-.45,1.5-.45.7,0,1.27.19,1.7.58.43.38.65.92.65,1.62,0,.62-.24,1.34-.72,2.16-.48.82-1.21,1.62-2.19,2.37-.97.76-2.2,1.39-3.67,1.89-1.47.5-3.17.75-5.08.75-4.38,0-7.79-1.25-10.22-3.75-2.43-2.5-3.65-5.89-3.65-10.17,0-2.02.3-3.89.9-5.61.6-1.72,1.47-3.2,2.62-4.44,1.15-1.23,2.57-2.18,4.25-2.84,1.68-.66,3.55-.99,5.6-.99,2.67,0,4.95.56,6.86,1.69,1.91,1.12,3.34,2.58,4.29,4.36.95,1.78,1.42,3.6,1.42,5.45,0,1.72-.49,2.83-1.47,3.34-.98.51-2.37.76-4.15.76ZM104.6,83.14h12.37c-.17-2.33-.8-4.08-1.89-5.23-1.09-1.16-2.53-1.74-4.31-1.74s-3.09.59-4.19,1.76c-1.09,1.17-1.75,2.91-1.99,5.21Z"/>
  <path class="cls-2" d="M132.76,68.3c-.95,0-1.76-.29-2.44-.87s-1.01-1.41-1.01-2.47c0-.97.34-1.76,1.04-2.39.69-.62,1.5-.94,2.41-.94s1.67.28,2.35.85c.68.57,1.02,1.39,1.02,2.47s-.33,1.87-1,2.46c-.67.59-1.46.89-2.37.89ZM136.13,75.34v19.71c0,1.37-.32,2.4-.97,3.1-.65.7-1.47,1.05-2.47,1.05s-1.81-.36-2.44-1.08c-.62-.72-.94-1.74-.94-3.07v-19.51c0-1.35.31-2.37.94-3.05s1.44-1.02,2.44-1.02,1.82.34,2.47,1.02c.65.68.97,1.63.97,2.85Z"/>
  <path class="cls-2" d="M149.85,65.47v10.12c.87-1,1.71-1.79,2.54-2.37.82-.58,1.74-1.02,2.74-1.31,1-.29,2.07-.44,3.22-.44,1.73,0,3.27.37,4.61,1.1,1.34.73,2.39,1.8,3.16,3.2.48.82.81,1.73.97,2.74.17,1.01.25,2.17.25,3.49v13.07c0,1.37-.31,2.4-.94,3.1-.62.7-1.45,1.05-2.49,1.05-2.25,0-3.37-1.38-3.37-4.15v-11.52c0-2.18-.32-3.86-.97-5.04-.65-1.17-1.88-1.76-3.7-1.76-1.22,0-2.31.35-3.29,1.04-.97.69-1.7,1.64-2.19,2.84-.37,1.02-.55,2.82-.55,5.42v9.02c0,1.35-.3,2.38-.91,3.09-.61.71-1.45,1.06-2.54,1.06-2.25,0-3.37-1.38-3.37-4.15v-29.58c0-1.38.3-2.42.89-3.11.59-.69,1.42-1.04,2.49-1.04s1.93.35,2.54,1.05c.61.7.91,1.73.91,3.1Z"/>
</svg>